<svg xmlns="http://www.w3.org/2000/svg" viewBox="0 0 30 30" width="30" height="30">
	<style>
		tspan { white-space:pre }
		.shp0 { fill: #404b42 } 
	</style>
	<path id="Layer" class="shp0" d="M23.17 18.32C23.05 18.32 22.93 18.27 22.84 18.18L15.18 10.27L7.5 18.18C7.32 18.36 7.04 18.36 6.86 18.18C6.68 18 6.68 17.7 6.86 17.52L14.85 9.27C15.02 9.09 15.33 9.09 15.51 9.27L23.5 17.52C23.68 17.7 23.68 18 23.5 18.18C23.41 18.27 23.29 18.32 23.17 18.32Z" />
	<path id="Layer" fill-rule="evenodd" class="shp0" d="M15.18 29.88C7.39 29.88 0.68 29.88 0.68 15.08C0.68 0.29 7.39 0.29 15.18 0.29C22.96 0.29 29.68 0.29 29.68 15.08C29.68 29.88 22.96 29.88 15.18 29.88ZM15.18 1.22C7.29 1.22 1.59 1.21 1.59 15.08C1.59 28.93 7.29 28.93 15.18 28.93C23.05 28.93 28.76 28.93 28.76 15.08C28.76 1.21 23.05 1.22 15.18 1.22Z" />
</svg>