<svg xmlns="http://www.w3.org/2000/svg" viewBox="0 0 12 23" width="12" height="23">
	<style>
		tspan { white-space:pre }
		.shp0 { fill: #618567 } 
	</style>
	<path id="Layer" class="shp0" d="M11.32 0.58L8.62 0.57C5.58 0.57 3.62 2.68 3.62 5.94L3.62 8.41L0.91 8.41C0.67 8.41 0.48 8.62 0.48 8.86L0.48 12.44C0.48 12.7 0.67 12.89 0.91 12.89L3.62 12.89L3.62 21.95C3.62 22.19 3.82 22.38 4.04 22.38L7.58 22.38C7.82 22.38 8.02 22.19 8.02 21.95L8.02 12.89L11.18 12.89C11.42 12.89 11.6 12.7 11.6 12.44L11.6 8.86C11.6 8.74 11.57 8.63 11.48 8.55C11.4 8.46 11.29 8.41 11.18 8.41L8.02 8.41L8.02 6.32C8.02 5.31 8.24 4.79 9.49 4.79L11.32 4.79C11.54 4.79 11.74 4.6 11.74 4.35L11.74 1.02C11.74 0.77 11.54 0.58 11.32 0.58Z" />
</svg>