<svg xmlns="http://www.w3.org/2000/svg" viewBox="0 0 50 42" width="50" height="42">
	<style>
		tspan { white-space:pre }
		.shp0 { fill: #689d71 } 
		.txt1 { font-size: 5px;fill: #000000;font-family: "'  Helvetica   Neue'" } 
	</style>
	<g id="Layer">
		<path id="Layer" fill-rule="evenodd" class="shp0" d="M1.44 15.98C0.49 12.87 0.74 9.21 2.96 6.7C6.7 2.48 16.14 2.18 18.65 7.98C20.49 3.64 28.44 -0.27 33.5 6.42C34.48 7.72 35.43 9.29 35.57 10.96C43.51 6.38 52.64 15.1 47.67 25.29C46.04 28.65 43.12 31.28 40.47 33.8C38.65 35.53 33.76 39.96 31.51 41.42C31.42 41.48 31.33 41.44 31.28 41.36C27.84 38.73 24.67 35.39 21.83 32.08C20.41 33.31 19.38 34.87 18.96 34.52C8.34 25.53 3.12 21.57 1.44 15.98ZM32.45 14.68C32.51 14.76 32.56 14.84 32.62 14.92C32.65 14.96 32.6 15 32.57 14.97C29.91 12.28 26.56 9.67 22.59 10.14C16.64 10.85 13.4 19.38 18.09 26.24C21.86 31.76 26.76 36.31 31.42 41C35.61 36.99 43.81 30.63 46.59 25.71C50.74 18.36 46.85 10.57 39.99 10.38C36.76 10.28 34.32 12.18 32.45 14.68ZM3.75 19.2C6.17 22.96 9.64 25.58 19.14 33.83C19.95 33.16 20.64 32.33 21.44 31.64C19.18 29.05 16.66 26.26 15.65 22.91C14.7 19.75 14.99 16.15 16.69 13.3C19.85 8 27.43 7.74 32.34 14.53C32.87 13.21 33.83 12.13 35 11.32C34.53 10.1 34.54 9.23 33.22 7.35C28.48 0.61 21.44 3.82 18.64 8.33C18.6 8.38 18.51 8.35 18.53 8.29C18.54 8.26 18.55 8.23 18.56 8.2C18.53 8.2 18.51 8.18 18.49 8.15C15.42 2.5 4.3 2.96 2.09 9.72C1.03 12.93 1.99 16.45 3.75 19.2Z" />
	</g>
	<text id="Created by Vectors Point" style="transform: matrix(0.185,0,0,0.189,0,50.514)" >
		<tspan x="0" y="0" class="txt1">Created by Vectors Point</tspan>
	</text>
	<text id="from the Noun Project" style="transform: matrix(0.185,0,0,0.189,0,51.118)" >
		<tspan x="0" y="0" class="txt1">from the Noun Project</tspan>
	</text>
</svg>