<svg width="71" height="71" viewBox="0 0 71 71" fill="none" xmlns="http://www.w3.org/2000/svg">
<path d="M14.1046 54.5129L15.1285 22.7864C15.1285 22.7864 14.0345 2 35.9149 2C57.7952 2 56.7007 22.7864 56.7007 22.7864V53.4189C50.2979 50.6801 47.0038 48.6924 45.7605 44.6667C48.8226 41.5401 50.7729 39.6033 51.2306 35.9146C56.3263 35.4937 56.7822 32.8235 55.6067 26.0684L53.4187 24.9744L52.9649 21.7983C49.849 19.4246 44.6665 14.0347 44.6665 14.0347C37.5021 18.315 33.2514 18.8683 24.9742 15.1287C24.9742 15.1287 23.2744 19.7976 18.4101 21.8968V24.9744C13.6242 23.9022 14.034 39.1966 20.5981 35.9146C20.3469 39.2741 21.5778 42.2822 26.0682 45.7607L23.9508 47.9488L14.1046 54.5129Z" fill="#E0E0E0" stroke="#E0E0E0" stroke-width="2.18804" stroke-linecap="round" stroke-linejoin="round"/>
<path d="M45.0563 44.059C48.1317 41.4835 49.9306 38.0044 50.6135 35.7904C55.991 35.7904 56.3496 25.3292 52.0475 25.3292C52.0475 25.3292 52.2557 23.8976 52.3329 21.6924M45.0563 44.059C42.7498 45.9906 39.7251 47.414 35.9146 47.414C27.0235 47.414 22.4107 39.6649 21.2157 35.7904C15.8381 35.7904 15.4795 25.3292 19.7817 25.3292C19.7817 25.3292 19.5735 23.8976 19.4963 21.6924M45.0563 44.059C45.0563 44.059 46.3026 48.3308 48.5034 49.7803M23.3258 49.7803L4.3223 60.109C2.88058 61.0586 2 62.7576 2 64.5898C2 67.4834 4.15846 69.8292 6.82106 69.8292H65.0081C67.6707 69.8292 69.8292 67.4834 69.8292 64.5898C69.8292 62.7576 68.9486 61.0586 67.5069 60.109L48.5034 49.7803M23.3258 49.7803C25.5265 48.3308 26.7728 44.059 26.7728 44.059M23.3258 49.7803C32.688 57.367 38.1861 57.6308 48.5034 49.7803" stroke="#BDBDBD" stroke-width="2.18804" stroke-linecap="round" stroke-linejoin="round"/>
<circle cx="29.3503" cy="27.1622" r="1.09402" fill="#BDBDBD" stroke="#BDBDBD" stroke-width="2.18804"/>
<circle cx="42.4787" cy="27.1622" r="1.09402" fill="#BDBDBD" stroke="#BDBDBD" stroke-width="2.18804"/>
</svg>
