<svg width="71" height="63" viewBox="0 0 71 63" fill="none" xmlns="http://www.w3.org/2000/svg">
<path d="M52.5761 2.53952C52.4444 2.26056 52.0311 2.46481 52.1303 2.74003C48.6375 10.0093 45.1168 17.2695 41.6123 24.5345C40.6238 26.5849 39.6331 28.6343 38.6378 30.6816C38.0781 31.8337 37.6054 33.2504 36.8571 34.297C36.5946 34.664 36.8441 34.5217 36.5307 34.5837C36.0056 34.6869 35.1705 34.4041 34.6562 34.3253C32.1338 33.937 29.6197 33.4979 27.1063 33.0575C19.5119 31.7258 11.9065 30.3982 4.36567 28.7859C4.31238 28.7746 4.28535 28.8555 4.33952 28.8671C11.0029 30.3488 17.7154 31.639 24.4317 32.8558C27.3705 33.3883 30.3115 33.9123 33.2594 34.3971C34.146 34.5427 35.0332 34.6939 35.9239 34.8119C36.1534 34.8424 36.6302 35.0002 36.856 34.8758C37.3228 34.6194 37.701 33.3057 37.9189 32.8675C38.8325 31.0305 39.7326 29.1871 40.6319 27.3435C40.6583 27.2885 40.685 27.2339 40.7121 27.1785C49.7395 30.7374 59.5188 32.359 68.8261 35.0279C68.957 35.0652 69.0225 34.8646 68.8911 34.8262C64.2132 33.4709 59.4837 32.3135 54.7679 31.1016C50.0544 29.89 45.4389 28.4416 40.7863 27.0261C43.1454 22.1885 45.4924 17.3456 47.8314 12.4986C49.3359 9.38123 50.8162 6.24781 52.3128 3.12787C56.2692 11.459 60.727 19.5569 65.1735 27.6343C66.0236 29.179 66.8775 30.721 67.7354 32.261C68.2346 33.1569 68.6686 34.2145 69.2873 35.0346C69.3418 35.1066 69.4351 35.2427 69.5003 35.3668C68.9804 35.6577 68.465 35.9558 67.9466 36.2495C53.7422 44.2901 39.3657 52.1533 24.5303 58.9789C23.4724 59.4657 22.4104 59.9444 21.3432 60.4118C20.7611 60.6668 19.0859 61.7335 18.4164 61.6737C20.1768 57.1368 22.1172 52.6718 24.0606 48.2112C26.0219 43.71 28.2724 39.1738 29.7109 34.4721C29.7583 34.3173 29.5377 34.253 29.4756 34.3964C27.5054 38.9342 25.7636 43.5811 23.8099 48.1309C21.8893 52.6033 19.9494 57.0708 18.3227 61.6604C17.7113 61.468 17.056 59.5312 16.7938 59.0281C16.2993 58.0802 15.8077 57.1308 15.3187 56.1808C14.438 54.4702 13.5646 52.7551 12.6995 51.0365C8.9507 43.5894 5.36695 36.0629 1.82656 28.5156C1.78791 28.4333 1.66453 28.4972 1.70115 28.5798C6.70907 39.9225 12.23 51.0391 17.9958 62.0158C18.0391 62.0987 18.1318 62.1183 18.2136 62.0859C26.8728 58.6251 35.2102 54.3495 43.4707 50.0434C50.8664 46.1879 58.195 42.2035 65.4715 38.129C66.9396 37.3068 68.4061 36.4832 69.8668 35.6481C69.9638 35.5926 70.0177 35.4658 69.959 35.3617C63.8851 24.5894 57.8552 13.7238 52.5761 2.53952Z" fill="black"/>
<path d="M3.33554 26.2309C17.5263 19.0689 31.8472 12.1602 46.1492 5.22179C47.5888 4.52339 49.0274 3.8247 50.4687 3.12977C50.6792 3.02783 50.5137 2.70576 50.303 2.80712C38.4521 8.52624 26.6185 14.2875 14.8594 20.1923C10.9835 22.1388 7.1183 24.1046 3.28662 26.1371C3.22709 26.1691 3.27484 26.262 3.33554 26.2309Z" fill="black"/>
</svg>
