<svg xmlns="http://www.w3.org/2000/svg" viewBox="0 0 120 121" width="120" height="121">
	<style>
		tspan { white-space:pre }
		.shp0 { fill: #689d71 } 
		.txt1 { font-size: 5px;fill: #000000;font-family: "'  Helvetica   Neue'" } 
	</style>
	<g id="Layer">
		<path id="Layer" class="shp0" d="M66.1 66.95C66.05 66.95 66.03 66.91 66.02 66.87C65.89 66.44 65.19 66.72 65.39 67.1C65.57 67.45 65.97 67.69 66.33 67.38C66.52 67.2 66.34 66.92 66.1 66.95Z" />
		<path id="Layer" class="shp0" d="M71.01 65.84C71.46 65.67 71.98 65.84 72.35 66.12C72.51 66.24 72.71 66.06 72.6 65.88C72.21 65.25 71.43 65.12 70.77 65.38C70.46 65.5 70.71 65.96 71.01 65.84Z" />
		<path id="Layer" class="shp0" d="M78.61 70.38C78.69 70.17 78.46 69.98 78.27 70.07C77.55 70.44 76.72 70.74 76.08 70.03C75.85 69.77 75.4 70.13 75.61 70.41C76.28 71.29 78.13 71.65 78.61 70.38Z" />
		<path id="Layer" class="shp0" d="M87.24 71.86C87.16 72.08 87.47 72.28 87.61 72.07C88.67 70.52 86.95 69.49 85.91 68.62C85.69 68.42 85.26 68.68 85.47 68.96C86.01 69.72 87.61 70.73 87.24 71.86Z" />
		<path id="Layer" class="shp0" d="M3.36 83.9C3.36 83.9 3.35 83.9 3.35 83.91C3.37 83.9 3.37 83.9 3.36 83.9Z" />
		<path id="Layer" fill-rule="evenodd" class="shp0" d="M2.63 84.03C2.59 84.02 2.59 83.99 2.68 83.94C4.53 82.04 6.63 80.44 8.75 78.85C12.79 75.8 16.91 72.83 21.2 70.15C30.08 64.64 40.16 62.35 50.51 64.51C53.16 65.05 55.75 65.9 58.21 67.02C59 67.37 59.75 67.77 60.5 68.19C60.41 62.73 69.84 61.78 73.79 62.16C77.26 62.49 79.57 64.19 81.73 64.99C79.15 62.28 73.76 59.77 73.07 53.18C66.63 58.07 58.07 55.87 53.89 45.03C51.73 39.42 50.85 32.95 45.58 29.21C45.25 28.98 45.59 28.54 45.91 28.65C53.85 26.8 62.88 25.87 70.17 30.36C77.57 34.91 80.77 45.88 74.19 52.22C76.27 60.63 80.13 61.09 82.29 63.57C82.8 61.56 85.21 59.64 85.95 57.79C82.4 56.23 79.97 53.15 79.25 48.83C78.24 42.72 80.45 37.14 85.25 33.25C90.91 28.66 98.07 27.12 105.16 26.52C105.43 26.24 105.89 26.64 105.65 26.98C100.89 33.44 103.84 41.73 102.15 48.97C100.41 56.44 94 61 86.36 57.96C85.61 61.4 83.3 61.53 83.11 64.95C83.15 65.09 83.18 65.24 83.21 65.39C84.74 65.62 86.07 65.03 87.57 64.81C92.01 64.19 91.97 68.8 94.63 71C94.69 71.05 94.74 71.11 94.78 71.17C97.41 68.95 100.23 67.07 103.59 65.6C105.89 64.6 108.63 63.11 111.22 63.3C112.91 63.41 115.65 64.08 116.75 65.57C119.5 69.28 112.7 72.55 110.68 74.27C106.17 78.12 101.79 82.12 97.31 85.99C89.94 92.39 81.77 101.41 71.22 101.24C61.41 101.08 53.04 94.83 43.6 92.97C33.58 91.01 23.29 95.77 18.14 104.57C17.67 105.38 16.47 104.54 16.95 103.73C21.45 95.97 30.09 90.91 39.09 90.9C47.57 90.89 55.03 95.46 62.88 98.02C67.09 99.4 71.57 100.17 75.91 99.08C75.84 98.92 75.79 98.76 75.76 98.58C75.65 97.93 75.57 97.3 75.56 96.64C75.56 96.4 75.95 96.31 76.03 96.54C76.19 96.97 76.31 97.37 76.41 97.81C76.44 97.98 76.49 98.72 76.7 98.81C76.72 98.82 76.74 98.84 76.76 98.84C81.64 97.35 85.62 93.89 89.45 90.66C93.47 87.28 97.44 83.85 101.4 80.4C100.71 79.87 100.37 79.07 100.42 78.19C100.43 78.02 100.7 78.01 100.75 78.16C100.97 78.85 101.33 79.51 101.76 80.08L101.77 80.08C104.37 77.8 106.92 75.38 109.62 73.16C108.84 71.92 109.37 69.82 110.01 68.69C111.02 66.89 112.6 66.32 114.41 65.74C114.35 65.7 114.28 65.66 114.21 65.63C113.01 65.01 111.43 64.7 110.13 64.83C107.61 65.1 104.8 66.65 102.53 67.76C95.98 70.96 95.33 73.1 92.07 75.38C94.11 76.01 95.93 77.09 96.96 78.99C98.92 82.66 95.74 86.35 92.21 87.24C89.29 87.98 86.27 87.25 83.35 86.94C80.19 86.59 76.97 86.54 73.79 86.75C66.79 87.2 60.4 89.26 53.83 91.54C53.17 91.78 52.79 90.87 53.41 90.54C58.57 87.74 64.75 86.39 70.55 85.75C73.75 85.4 76.99 85.32 80.21 85.5C83.36 85.67 86.54 86.46 89.7 86.31C90.11 86.29 90.54 86.24 90.99 86.15C89.85 86.11 88.75 85.85 87.95 85.18C86.62 84.07 85.99 82.15 86.59 80.49C87.89 76.89 92.76 78.24 95.52 79.19C92.21 74.45 80.85 76.1 75.22 75.64C72.33 75.42 69.49 74.84 66.85 73.6C64.45 72.47 62.31 70.89 60 69.62C55.27 67.02 49.92 65.53 44.53 65.22C34.6 64.65 26.17 68.38 18.06 73.69C14.64 75.92 11.31 78.28 8.02 80.7C6.81 81.59 5.61 82.48 4.35 83.3C4.06 83.49 3.7 83.8 3.36 83.9C3.33 83.91 3.12 83.96 2.93 83.99C2.95 84.05 2.95 84.11 2.9 84.16C2.9 84.16 2.9 84.16 2.9 84.17C2.78 84.29 2.6 84.16 2.63 84.03ZM95.57 79.25C93.62 78.83 90.95 78.09 89.1 78.76C86.15 79.82 86.13 84.25 89.12 85.42C90.11 85.81 91.3 85.81 92.45 85.75C94.79 84.89 96.85 83.09 96.09 80.38C95.97 79.97 95.79 79.6 95.57 79.25ZM114.82 66.11C113.24 66.6 111.83 66.94 110.77 68.32C109.83 69.52 109.29 71.47 109.84 72.98C110.95 72.07 112.07 71.2 113.25 70.4C114.95 69.24 116.63 67.45 114.9 66.06C114.87 66.08 114.85 66.1 114.82 66.11ZM86.23 56.76C86.07 52.46 87.79 48.06 90.16 44.55C91.57 42.46 93.41 40.77 94.97 38.81C96.65 36.73 97.51 34.41 98.2 31.85C98.23 31.7 98.45 31.73 98.45 31.88C98.46 33.96 97.81 35.77 96.84 37.44C97.05 37.4 97.28 37.37 97.48 37.29C97.85 37.14 98.2 36.91 98.53 36.67C98.61 36.61 98.71 36.71 98.68 36.79C98.5 37.24 98.17 37.55 97.71 37.74C97.41 37.87 96.94 37.97 96.61 37.85C93.19 43.36 89.33 43.98 86.78 56.97C90.93 58.48 95.2 57.93 98.27 54.26C101.18 50.77 101.55 46.27 101.63 41.89C101.72 36.96 101.83 31.5 104.63 27.25C102.74 27.75 100.81 28.02 98.89 28.41C95.77 29.06 92.82 30.18 89.99 31.69C86.58 33.52 83.47 36.03 81.66 39.52C78.81 45.02 79.77 53.99 86.23 56.76ZM69.29 31.32C65.79 29.28 61.69 28.58 57.7 28.31C53.97 28.06 50.35 28.96 46.66 29.18C51.49 32.96 52.87 39.39 55.09 44.82C59.23 54.96 66.95 56.51 72.95 51.85C66.56 40.33 62.51 40.84 57.6 36.73C57.16 37.05 55.97 37.14 55.31 36.38C55.25 36.3 55.31 36.17 55.42 36.2C56.51 36.56 56.66 36.47 57.23 36.41C55.79 35.13 54.61 33.62 53.98 31.63C53.93 31.48 54.14 31.41 54.22 31.53C55.73 33.82 57.39 35.85 59.75 37.33C62.08 38.78 70.76 42.61 73.36 51.36C73.42 51.35 73.49 51.35 73.55 51.35C79.97 45.76 75.57 34.99 69.29 31.32ZM61.33 68.66C62.95 69.61 64.51 70.64 66.17 71.55C73.95 75.86 83.36 73.51 90.63 75.02C91.67 73.97 92.71 72.98 93.77 72.05C90.53 71.65 91.71 65.62 87.25 66.52C85.21 66.95 83.66 67.31 81.62 66.64C79.6 65.99 77.84 64.73 75.82 64.09C72.18 62.93 61.06 62.96 61.33 68.66Z" />
		<path id="Layer" class="shp0" d="M90.01 44.15C89.19 42.22 89.82 40.29 90.31 38.38C90.35 38.18 90.06 38.06 89.95 38.22C88.7 40.08 88.31 42.44 89.75 44.28C89.84 44.4 90.08 44.32 90.01 44.15Z" />
		<path id="Layer" class="shp0" d="M95.41 49.03C93.61 50.93 91.16 51.11 88.69 51.34C88.31 51.37 88.25 52.01 88.66 52.03C91.28 52.2 94.57 51.99 95.78 49.23C95.89 48.99 95.56 48.86 95.41 49.03Z" />
		<path id="Layer" class="shp0" d="M84.36 50.4C84.36 50.31 84.21 50.27 84.19 50.37C83.77 51.94 84.58 53.53 85.97 54.31C86.09 54.38 86.2 54.2 86.09 54.12C84.85 53.27 84.3 51.86 84.36 50.4Z" />
		<path id="Layer" class="shp0" d="M64.05 35C63.87 34.85 63.65 35.09 63.77 35.28C64.83 36.95 66.02 38.54 65.85 40.65C65.83 40.83 66.09 40.82 66.13 40.68C66.92 38.48 65.81 36.37 64.05 35Z" />
		<path id="Layer" class="shp0" d="M69.55 47.72C69.9 47.58 69.79 46.95 69.4 47.05C66.95 47.6 64.55 48.19 62.2 46.93C62.01 46.83 61.81 47.12 61.95 47.28C63.96 49.5 67.11 48.68 69.55 47.72Z" />
		<path id="Layer" class="shp0" d="M73.17 44.82C73.69 46.2 73.59 47.7 72.68 48.89C72.61 48.99 72.77 49.12 72.85 49.03C73.93 47.85 74.22 46.1 73.33 44.74C73.27 44.64 73.13 44.71 73.17 44.82Z" />
	</g>
	<text id="Created by Vectors Point" style="transform: matrix(0.445,0,0,0.445,0,132.382)" >
		<tspan x="0" y="0" class="txt1">Created by Vectors Point</tspan>
	</text>
	<text id="from the Noun Project" style="transform: matrix(0.445,0,0,0.445,0,134.606)" >
		<tspan x="0" y="0" class="txt1">from the Noun Project</tspan>
	</text>
</svg>