<svg xmlns="http://www.w3.org/2000/svg" viewBox="0 0 120 121" width="120" height="121">
	<style>
		tspan { white-space:pre }
		.shp0 { fill: #689d71 } 
		.txt1 { font-size: 5px;fill: #000000;font-family: "'   Helvetica    Neue'" } 
	</style>
	<g id="Layer">
		<path id="Layer" fill-rule="evenodd" class="shp0" d="M6.99 101.17C7.32 82.52 7.96 69.88 7.81 58.58C7.75 54.71 8.86 52.36 11.35 49.42C14.29 45.94 21.17 38.98 21.22 38.93C20.85 29.95 24.45 17.65 30.38 12.67C30.9 12.24 31.54 12.87 31.23 13.42C31.22 13.43 31.22 13.44 31.22 13.45C32.72 18.94 33.44 24.67 35.78 29.92C38.24 35.41 41.51 37.81 44.22 40.76C43.7 38.25 43.61 35.63 43.72 33.01C43.9 28.93 44.96 25.23 46.47 21.61C45.1 22.58 43.52 23.41 42.22 24.38C40.14 25.94 37.82 27.48 36.14 29.49C35.9 29.78 35.46 29.45 35.62 29.13C36.58 26.92 39.14 25.45 40.96 24.04C42.8 22.62 44.94 20.63 47.23 19.86C47.61 19.05 48 18.22 48.41 17.4C49.63 14.93 50.87 12.45 51.87 9.86C52.42 8.48 53.34 6.26 53.46 4.4C53.42 4.36 53.41 4.32 53.38 4.28C53.26 4.06 53.33 3.85 53.46 3.71C53.44 3.47 53.41 3.24 53.34 3.01C53.24 2.6 53.83 2.39 53.98 2.8C54.08 3.11 54.14 3.43 54.19 3.77C57.38 9.46 62.09 14.11 64.42 20.31C66.44 25.63 67.1 31.59 66.47 37.27C69.3 32.01 69.97 27.5 69.85 21.39C69.1 20.95 68.42 20.35 67.66 19.94C66.47 19.34 65.18 19.1 63.98 18.57C63.9 18.53 63.86 18.37 63.98 18.37C65.74 18.09 68.3 18.97 69.82 20.31C69.77 18.49 69.43 12.28 69.52 11.73C69.03 11.27 69.54 10.91 69.86 11.14C74.85 14.61 78.7 19.61 81.21 25.21C81.28 25.01 81.55 24.89 81.73 25.07C84.82 28.29 89.61 30.79 91.88 34.75C93.16 32.09 94.18 29.34 94.9 26.47C95.06 25.84 96.09 26.08 95.99 26.71C95.34 30.96 95.94 35.07 96.62 39.19C96.84 39.47 100.62 44.95 106.74 50.13C110.04 52.91 112.19 55.07 112.31 59.56C112.61 70.37 112.5 81.21 112.54 92.03C112.65 113.76 112.7 108.15 112.72 111.1C112.86 111.19 112.99 111.27 113.13 111.35C113.54 111.62 113.23 112.26 112.78 112.13C112.75 112.12 112.74 112.11 112.7 112.11C112.67 113.81 112.71 114.93 111.41 115.53C109.77 116.3 107.34 116 105.58 116.1C103.34 116.25 101.09 116.38 98.84 116.5C72.41 117.97 39.65 118.37 13.58 117.56C11.19 117.49 7.24 118.09 6.88 114.82C6.39 110.39 6.91 105.62 6.99 101.17ZM96.82 40.39C97.71 45.85 98.7 51.49 95.94 56.13C97.26 56.2 98.63 56.57 99.96 56.68C101.93 56.84 103.9 56.88 105.87 57.01C106.23 57.02 106.3 57.6 105.96 57.7C102.97 58.65 97.98 59.1 95.06 57.37C92.76 60.28 89.3 61.33 88.93 61.12C88.43 63.67 88.21 66.15 89.49 68.75C95.89 65.08 101.78 60.69 108.02 56.75C108.26 56.6 108.46 56.97 108.28 57.13C98.7 66.84 79.23 76.95 65.74 79.88C77.37 87.74 89.08 97.38 101.48 104.76C104.7 106.67 108.06 108.36 111.28 110.25C111.28 110.19 111.12 85.41 111.11 83.37C111.1 78.95 111.07 74.52 111.06 70.08C111.04 66.09 111.42 61.87 110.9 57.91C110.17 52.06 103.91 51.69 96.82 40.39ZM84.95 52.45C85.03 55.52 86.11 58.29 87.93 60.7C88.21 59.45 88.64 58.23 89.19 57.1C89.34 56.81 89.72 57.05 89.68 57.33C89.5 58.43 89.25 59.51 89.02 60.59C91.19 59.95 93.04 58.62 94.38 56.85C94.24 56.61 94.27 56.24 94.62 56.19C94.7 56.17 94.78 56.17 94.86 56.16C99.02 49.67 94.66 36.76 94.58 31.29C90.34 42.69 84.76 45.09 84.95 52.45ZM46.06 42.98C46.96 44.23 47.7 45.56 48.32 47.18C50.27 49.87 52.89 51.96 55.63 53.83C52.96 48.32 51.72 38.25 54.72 27.08C54.86 26.55 55.68 26.8 55.54 27.34C53.78 34.68 53.77 42.13 55.76 49.64C57.37 55.69 61.74 57.74 60.88 68.36C60.7 70.72 59.9 73.93 57.98 75.61C60.02 76.25 62.51 77.77 64.49 79.04C68.46 77.82 72.36 76.53 76.19 75.04C72.02 66.85 69.28 58.91 71.82 50.22C72 48.04 71.77 45.92 71.62 43.73C71.62 43.56 71.86 43.52 71.91 43.67C72.4 45.19 72.49 46.85 72.38 48.47C73.76 44.43 75.68 40.51 76.46 36.3C76.51 35.98 76.94 36.12 76.96 36.39C77.55 46.28 68.42 49.41 73.1 65.39C81.11 59.76 91.86 33.82 70.41 12.59C72.16 21.8 71.58 30.98 66.94 39.25C64.28 43.96 62.3 49.08 63.49 54.59C64.51 59.38 67.93 63.81 72.25 66.06C72.62 66.25 72.34 66.81 71.96 66.64C65.22 63.73 61.72 56.9 61.96 49.95C61.2 51.5 60.17 52.9 58.83 53.91C58.6 54.07 58.34 53.82 58.47 53.58C59.59 51.39 60.99 49.31 62.26 47.17C62.81 44.13 63.9 41.97 65.4 39.24C64.59 38.56 66.4 29.3 63.06 20.34C61.05 14.9 57.13 10.61 54.19 5.7C53.89 8.41 52.46 11.38 51.54 13.4C50.52 15.63 49.38 17.8 48.33 20.02C48.32 20.02 48.32 20.02 48.32 20.02C47.28 22.21 46.34 24.44 45.7 26.8C44.34 31.84 44.18 37.94 46.06 42.98ZM81.72 26.4C86.3 37.65 85.61 50.64 77.94 62.67C76.86 64.35 75.52 66.14 73.44 66.49L73.43 66.49C74.34 69.35 75.5 72.14 76.64 74.86C80.9 73.18 84.88 71.36 88.82 69.14C87.61 66.89 87.34 64.31 87.72 61.8C87.54 61.83 87.36 61.78 87.22 61.61C83.55 57.5 82.7 51.25 84.97 46.24C86.61 42.61 89.19 40.07 91.46 35.63C89.69 34.14 88.09 32.46 86.36 30.94C84.9 29.66 82.84 28.17 81.72 26.4ZM10.99 115.96C36.56 116.83 71.16 116.66 108 114.53C109.33 114.46 110.11 114.73 110.79 113.46C111.12 112.83 111.24 112.27 111.28 111.66C103.34 109 95.98 103.68 89.19 98.95C57.06 76.58 57.22 71.96 48.45 80.02C23.46 102.95 22.72 103.83 18.99 107.02C16.02 109.56 12.84 112.1 9.1 113.39C8.81 113.48 8.62 113.11 8.89 112.95C17.68 107.34 23.88 101.1 42.1 84.28C43.82 82.7 45.51 80.85 47.34 79.19C44.91 80.43 15.21 64.28 9.42 58.18C9.26 58.01 9.46 57.66 9.7 57.77C13.93 59.76 23.96 68.22 41.62 75.58C41.95 72.66 42.28 69.65 42.32 66.67C42.29 66.68 42.26 66.68 42.22 66.68C33.22 66.11 22.72 55.39 21.34 40.84C17.3 45.29 10.71 51.18 9.55 54.75C11.38 55.41 13.1 56.44 15.02 56.77C16.86 57.1 18.78 56.77 20.58 56.37C21.02 56.28 21.23 56.96 20.82 57.13C17.07 58.73 14.7 59.41 9.25 56.23C8.98 58.62 9.54 49.02 8.5 103.8C8.46 106 8.42 108.19 8.4 110.39C8.38 112.68 7.78 115.86 10.99 115.96ZM22.75 38.57C22.85 38.74 22.86 38.94 22.78 39.13C23.34 51.21 31.03 63.14 42.23 66C42.26 65.98 42.3 65.97 42.33 65.94C42.3 55.5 38.61 51.73 35.11 47.41C33.76 46.32 32.23 45.65 30.64 44.99C30.44 44.91 30.54 44.59 30.74 44.63C31.99 44.89 33.14 45.48 34.17 46.22C32.58 44.16 31.18 42.01 30.61 39.44C30.54 39.15 30.96 38.99 31.09 39.26C33.28 43.75 36.89 47.34 39.5 51.53C38.88 49.43 38.36 47.09 38.58 44.92C38.6 44.67 38.98 44.67 39.01 44.91C39.3 47.29 39.4 49.57 40.07 51.89C40.12 52.05 40 52.13 39.87 52.14C42.27 56.2 43.2 60.52 43.22 65.36C47.82 62.05 50.26 54.68 47.25 47.82C45.05 44.72 46.11 44.42 41.14 39.51C36.06 34.55 31.93 28.21 30.54 14.62C29.42 16.41 28.1 18.11 27.11 20C24.06 25.79 22.56 32.29 22.75 38.57ZM47.5 79.05C50.62 76.26 53.14 74.61 56.82 75.32C58.68 72.54 59.42 69.13 59.24 65.8C58.9 59.55 58.02 58.19 56.36 55.21C53.66 54.05 51.25 52.35 49.23 50.24C50.54 56.36 49.02 63.08 43.22 66.24C43.16 69.44 42.71 72.66 42.13 75.8C43.97 76.57 45.78 77.39 47.38 78.47C47.62 78.63 47.62 78.87 47.5 79.05Z" />
		<path id="Layer" class="shp0" d="M41.13 61.23C41.22 61.49 41.59 61.32 41.5 61.06C40.66 58.58 39.11 56.25 36.81 54.95C36.64 54.85 36.48 55.1 36.62 55.22C38.58 56.91 40.22 58.75 41.13 61.23Z" />
		<path id="Layer" class="shp0" d="M54.98 41.98C55.34 37.95 57.88 36.56 59.14 35.46C59.3 35.3 59.14 35.04 58.94 35.11C56.23 35.92 54.7 39.34 54.54 41.93C54.52 42.23 54.96 42.28 54.98 41.98Z" />
		<path id="Layer" class="shp0" d="M52.03 36.02C52.06 36.29 52.46 36.24 52.45 35.96C52.34 33.76 51.94 31.53 50.82 29.61C50.72 29.42 50.45 29.59 50.5 29.79C51.22 31.84 51.86 33.83 52.03 36.02Z" />
		<path id="Layer" class="shp0" d="M75.05 52.04C73.11 52.99 72.14 55.33 71.95 57.37C71.94 57.46 72.1 57.5 72.13 57.41C72.58 55.28 73.83 53.87 75.24 52.31C75.35 52.19 75.21 51.96 75.05 52.04Z" />
		<path id="Layer" class="shp0" d="M90.59 51.69C90.84 49.54 91.92 48.13 93.26 46.56C93.37 46.44 93.24 46.28 93.1 46.36C91.32 47.39 90.38 49.66 90.14 51.64C90.11 51.93 90.56 51.97 90.59 51.69Z" />
		<path id="Layer" class="shp0" d="M89.62 54.67C89.98 52.81 89.64 50.8 88.82 49.11C88.75 48.97 88.55 49.07 88.58 49.21C88.98 51.02 89.14 52.82 89.25 54.67C89.26 54.87 89.58 54.87 89.62 54.67Z" />
		<path id="Layer" class="shp0" d="M103.02 79.8C103.18 84.08 103.45 88.35 103.23 92.65C103.2 93.35 104.29 93.47 104.32 92.77C104.54 88.43 104.54 84.01 103.7 79.74C103.62 79.32 103.01 79.35 103.02 79.8Z" />
		<path id="Layer" class="shp0" d="M15.68 95.44C15.54 89.76 15.7 84.38 17.18 78.85C17.3 78.47 16.7 78.33 16.6 78.71C15.06 84.04 14.17 89.92 15.06 95.46C15.12 95.85 15.7 95.85 15.68 95.44Z" />
		<path id="Layer" class="shp0" d="M36.79 111.38C41.93 112.55 51.95 112.47 57.35 111.46C57.72 111.38 57.58 110.82 57.24 110.82C53.46 110.94 49.66 111.18 45.88 111.1C42.9 111.06 39.94 110.65 36.97 110.61C36.54 110.6 36.33 111.27 36.79 111.38Z" />
	</g>
	<text id="Created by Vectors Point" style="transform: matrix(0.445,0,0,0.446,0,127.251)" >
		<tspan x="0" y="0" class="txt1">Created by Vectors Point</tspan>
	</text>
	<text id="from the Noun Project" style="transform: matrix(0.445,0,0,0.446,0,129.484)" >
		<tspan x="0" y="0" class="txt1">from the Noun Project</tspan>
	</text>
</svg>