<svg xmlns="http://www.w3.org/2000/svg" viewBox="0 0 120 121" width="120" height="121">
	<style>
		tspan { white-space:pre }
		.shp0 { fill: #689d71 } 
		.txt1 { font-size: 5px;fill: #000000;font-family: "'  Helvetica   Neue'" } 
	</style>
	<g id="Layer">
		<path id="Layer" fill-rule="evenodd" class="shp0" d="M110.99 84.69C110.07 89.09 108.19 94.46 104.9 98.07C104.98 98.13 105.06 98.18 105.13 98.24C105.25 98.32 105.13 98.52 105.01 98.48C104.89 98.44 104.77 98.38 104.65 98.34C98.37 104.9 87.23 103.93 81.09 88.45C79.78 93.81 77.26 98.01 73.17 101.88C62.51 111.97 62.79 111.93 61.61 112.13C62.13 113.75 61.57 116.02 61.56 117.62C61.56 117.86 61.15 117.86 61.13 117.62C60.94 115.97 60.07 113.71 60.51 112.02C59.31 111.55 58.3 110.09 57.28 109.27C51.43 104.56 44.85 103.11 40.05 94.69C37.61 90.4 38.32 88.91 38.07 85.67C28.43 106.1 8.81 101.89 8.07 75.55C8.01 75.47 8.01 75.37 8.06 75.29C7.96 71.18 8.35 66.65 10.17 62.98C11.91 59.46 15.09 57.59 18.75 56.56C24.51 54.94 38.7 52.6 44.36 53.45C45.57 50.89 56.88 50.31 59.66 50.2C64.04 50.02 74.13 51.14 77.57 53.83C78.52 54.58 78.52 55.16 78.05 55.59C82.47 55.37 86.96 56.42 91.25 57.46C101.33 59.9 109.46 60.85 111.51 70.93C111.6 70.96 111.69 71.07 111.56 71.18C112.41 75.65 111.83 80.68 110.99 84.69ZM45.43 53.63C46.27 53.82 47.09 54.07 47.87 54.41C48.11 54.51 47.95 54.84 47.72 54.76C47.13 54.57 46.54 54.42 45.93 54.3C48.22 55.51 61.03 57.03 73.13 56.23C74.14 55.62 78.69 55.98 76.66 54.2C75.73 53.38 73.89 53.01 72.72 52.67C60.45 49.17 45.87 52.14 45.43 53.63ZM110.33 83.62C111.04 79.82 111.37 75.59 110.76 71.68C109.3 72.28 107.45 71.72 105.97 71.35C102.76 70.53 99.11 69.6 96.29 67.8C96.16 67.72 96.25 67.54 96.39 67.56C100.73 68.27 107.2 71.74 110.66 71.11C109.92 67.08 108.18 64.22 103.92 62.12C104.12 66.91 97.89 68.12 94.29 67.23C89.87 66.15 86.82 63.14 78.19 60.49C77.95 60.41 78.05 60.02 78.29 60.07C82.5 60.93 86.26 62.82 90.09 64.7C94.91 67.08 101.42 68.26 103.41 61.88C102.54 61.49 101.62 61.14 100.66 60.83C93.07 58.43 84.39 55.62 76.27 56.34C75.54 56.5 74.75 56.59 74.11 56.61C73.44 56.72 73.26 56.84 73.21 56.59C73.2 56.59 73.19 56.58 73.19 56.58C73.18 56.58 73.17 56.58 73.17 56.57C65.83 57.95 57.67 57.16 50.35 56.06C49.59 55.95 44.9 55.39 44.34 54.05C38.58 53.39 25.68 55.66 20.93 56.83C23.66 58.47 27.29 61.38 25.99 64.28C26.84 64.32 28.39 65.83 27.97 67.29C27.96 68.03 27.77 67.79 27.76 67.74C27.74 67.64 27.72 67.52 27.71 67.4C27.59 67.29 27.33 66.24 26.77 65.53C26.5 65.19 26.07 64.99 25.77 64.68C23.67 68.34 16.7 69.16 17.95 68.56C20.37 67.39 23.48 67.06 25.01 64.55C27.07 61.16 20.59 57.69 20.29 57C13.03 58.87 8.73 62.45 8.89 74.88C11.24 73.96 13.84 73.84 16.27 73.17C27.53 70.12 36.71 61.61 39.08 60.05C39.07 60.03 39.08 60.01 39.11 60.04C39.73 59.62 40.37 59.26 41.03 58.96C41.1 58.93 41.19 59.01 41.13 59.08C39.14 61.58 35.75 63.53 33.14 65.36C29.21 68.11 25.31 70.43 20.74 72.25C23.43 74.16 24.27 78.14 21.14 81.15C21.59 81.5 22.87 83.32 23.67 83.6C24.71 83.52 25.74 83.44 26.77 83.35C33.01 77.99 34.14 73.64 37.88 71.12C37.99 71.05 38.16 71.2 38.07 71.31C36.69 73.22 36.29 73.42 32.09 78.54C32.99 79.71 34 81.3 35.37 81.77C37.73 82.57 38.53 80.13 39.48 78.61C39.57 78.46 39.81 78.54 39.83 78.69C42.04 71.63 42.63 63.04 48.59 59.4C48.85 59.24 49.07 59.62 48.88 59.82C47.5 61.28 46.41 62.81 45.53 64.43C55.88 67.6 63.25 69.71 73.25 64.13C73.45 64.02 73.61 64.27 73.45 64.42C65.95 71.23 53.68 67.87 45.37 64.72C42.89 69.41 42.54 73.34 40.49 79.54C52.33 87.34 68.31 86.51 75.82 81.08C76.11 80.87 76.39 81.3 76.19 81.54C72.15 86.29 64.53 86.52 58.78 86.27C52.25 85.98 45.46 84.26 40.33 80.01C39.73 81.79 39.05 83.54 38.27 85.25C39.56 89.65 38.73 91.76 42.89 96.98C53.63 101.14 53.42 101.71 66.36 100.56C66.55 100.54 66.59 100.8 66.42 100.86C59.89 103.22 48.33 101.31 43.15 97.3C45.39 100.03 47.76 101.71 50.93 103.67C57.23 105.52 58.47 105.36 64.27 104.28C64.45 104.25 64.48 104.52 64.33 104.59C60 106.35 55.46 105.58 51.29 103.89C53.62 105.31 55.99 106.67 58.15 108.37C59.57 109.47 60.62 111.19 62.53 110.04C63.75 109.31 64.91 107.76 65.93 106.78C72.83 100.14 75.73 97.94 77.67 93.85C78.75 91.59 79.43 89.18 80.52 86.93C77.58 78.38 78.09 68.68 72.24 61.4C72.07 61.19 72.32 60.85 72.57 61.02C78.8 65.57 78.33 75.67 80.12 82.43C82.16 90.13 86.51 100.96 95.93 101.32C99.17 101.44 101.77 100.11 103.83 98.02C101.89 97.21 100.03 96.1 98.17 95.15C96.67 94.37 95 93.64 93.66 92.59C91.16 90.62 91.49 88.26 93.26 86C91.2 85.59 88.87 84.52 86.99 83.73C85.14 82.96 83.63 81.96 82.19 80.59C82.11 80.5 82.23 80.34 82.33 80.41C84.86 82.14 87.67 83.26 90.55 84.23C91.74 84.63 93.8 85.81 95.03 85.26C96.23 84.73 96.29 80.79 96.55 79.46C93.51 78.22 90.51 76.88 87.61 75.41C81.57 72.34 81.93 68.86 84.91 63.7C84.93 63.67 84.97 63.69 84.95 63.72C83.42 66.82 82.36 70.61 85.39 73.17C88.05 75.42 91.22 75.82 108.47 83.24C108.7 83.34 108.54 83.66 108.31 83.59C104.43 82.42 100.54 81.06 96.73 79.53C97.05 83.05 96.93 86.67 93.47 86.04C93.01 87.23 92.36 88.17 92.49 89.54C92.8 92.93 97.77 93.24 104.23 97.6C107.63 93.87 109.5 88.07 110.33 83.62ZM39.42 79.98C38.83 81.27 37.77 82.44 36.31 82.47C34.27 82.51 32.97 80.27 31.91 78.76C30.68 80.25 29.13 81.95 27.61 83.36C28.91 85.48 27.99 87.46 26.22 88.97C24.71 90.25 22.87 91.85 20.97 92.41C20.9 92.43 20.87 92.33 20.91 92.29C23.29 89.97 27.77 88.37 27.43 85.13C27.38 84.62 27.24 84.2 27.19 83.74C24.23 86.21 23.01 83.77 20.86 81.45C20.85 81.44 20.85 81.43 20.84 81.42C19.67 82.46 16 85.03 11.85 87.08C11.49 87.26 11.16 86.73 11.52 86.55C29.65 77.94 20.44 72.79 20.38 72.39C14.71 74.59 12.25 74.04 8.9 75.45C9.18 86.01 13.73 99.17 24.11 97.56C32.33 96.28 36.87 87.55 39.42 79.98Z" />
		<path id="Layer" class="shp0" d="M73.03 69.77C69.41 71.31 66.97 73.3 58.82 72.51C56.61 72.29 54.39 71.96 52.19 71.6C47.85 70.88 43.02 68.7 43.59 69.23C47.23 72.58 54.12 72.75 58.71 73.19C63.21 73.63 69.91 73.86 73.17 69.99C73.24 69.9 73.17 69.71 73.03 69.77Z" />
		<path id="Layer" class="shp0" d="M74.82 87.61C70.38 91.1 64.07 91.48 58.65 91.14C47.48 90.44 41.16 85.8 38.99 84.81C37.77 84.25 44.01 90.6 57.47 91.86C63.25 92.4 70.59 92.21 74.92 87.74C74.99 87.66 74.9 87.55 74.82 87.61Z" />
		<path id="Layer" class="shp0" d="M83.17 7.93C84.33 8.76 86.22 8.4 86.46 6.84C86.75 4.95 84.83 3.31 83.19 2.89C80.93 2.31 79.33 3.64 77.89 5.21C75.85 7.42 74.23 9.96 72.87 12.63C70.83 16.59 69.64 20.7 68.5 25.57C63.91 24.21 58.91 24.1 54.51 26C53.45 20.98 48.88 11.57 41.26 8.18C39.41 7.35 34.89 6.56 35.38 10.05C35.8 12.98 39.66 12.49 39.95 9.77C40.05 8.85 38.76 8.72 38.68 9.66C38.75 8.78 37.58 8.33 39.23 8.74C44.49 10.02 51.45 17.4 53.41 26.53C50.21 28.19 47.61 30.87 46.19 34.37C44.97 37.44 44.5 40.93 44.77 44.22C44.92 46.13 45.01 47.47 46.25 48.91C46.31 48.98 46.41 48.89 46.36 48.82C45.22 47.19 45.39 45.43 45.39 43.47C45.38 40.72 45.81 37.96 46.81 35.4C48.16 31.97 50.6 29.36 53.65 27.77C53.83 28.83 53.96 29.92 54.09 31.06C54.11 31.27 54.45 31.32 54.51 31.11C54.84 29.89 54.87 28.59 54.71 27.26C58.18 25.78 62.55 25.4 68.15 27.21C67.89 28.57 67.69 29.94 67.67 31.25C67.67 31.37 67.77 31.49 67.88 31.54C67.94 31.56 68.01 31.59 68.07 31.61C68.19 31.66 68.35 31.57 68.39 31.45C68.41 31.39 68.43 31.35 68.44 31.29C68.46 31.23 68.41 31.15 68.35 31.12C68.33 31.11 68.29 31.09 68.26 31.07C68.4 31.01 68.51 30.93 68.57 30.8C68.71 30.52 68.78 30.23 68.79 29.91C68.93 29.22 68.98 28.83 69.21 27.62C71.39 28.61 72.89 30.32 74.19 32.48C76.95 37.1 78.15 43.23 76.22 48.37C76.05 48.84 76.71 49.08 76.93 48.65C79.7 43.28 78.77 36.8 75.81 31.7C74.29 29.09 72.41 26.91 69.56 25.91C70.94 19.34 73.03 12.79 77.25 7.54C78.06 6.53 78.95 5.41 79.99 4.64C80.89 3.97 82 3.66 83.09 4.04C83.37 4.18 83.64 4.33 83.92 4.47C83.79 4.48 83.67 4.5 83.54 4.53C81.97 4.99 81.99 7.09 83.17 7.93Z" />
		<path id="Layer" class="shp0" d="M81.98 87.5C90.5 94.29 90.73 93.1 91.17 97.19C91.19 97.4 91.53 97.45 91.59 97.24C92.12 95.38 91.67 94.13 90.15 93C87.53 91.03 84.8 89.18 82.09 87.34C81.98 87.27 81.89 87.42 81.98 87.5Z" />
		<path id="Layer" class="shp0" d="M52.85 34.25C49.92 35.44 48.48 38.35 48.74 41.41C48.76 41.62 49.11 41.63 49.12 41.42C49.21 38.63 50.83 36.17 53.07 34.62C53.28 34.47 53.07 34.17 52.85 34.25Z" />
		<path id="Layer" class="shp0" d="M70.88 35.34C70.56 35.04 70.13 35.56 70.45 35.86C71.44 36.79 72.37 38.04 72.95 39.27C73.02 39.42 73.25 39.31 73.21 39.16C72.77 37.62 72.05 36.43 70.88 35.34Z" />
		<path id="Layer" class="shp0" d="M57.99 53.78C58.6 53.78 58.57 52.84 57.97 52.84C57.37 52.84 57.39 53.78 57.99 53.78Z" />
		<path id="Layer" class="shp0" d="M48.33 53.47C48.61 53.34 48.64 52.89 48.36 52.77C48.31 52.58 48.01 52.52 47.81 52.97C47.67 53.29 48.04 53.6 48.33 53.47Z" />
		<path id="Layer" class="shp0" d="M66.01 55.07C66.55 55.07 66.59 54.24 66.06 54.24C65.53 54.24 65.47 55.07 66.01 55.07Z" />
		<path id="Layer" class="shp0" d="M72.49 54.11C73.01 54.37 73.15 53.31 72.53 53.51C72.26 53.6 72.23 53.98 72.49 54.11Z" />
		<path id="Layer" class="shp0" d="M61.23 54.82C61.47 55.11 61.97 54.83 61.75 54.5C61.37 53.94 60.75 54.15 60.94 54.44C61.03 54.58 61.13 54.69 61.23 54.82Z" />
		<path id="Layer" class="shp0" d="M53.33 53.95C53.49 53.73 53.36 53.37 53.07 53.35C52.97 53.35 52.83 53.31 52.72 53.41C52.61 53.53 52.63 53.72 52.69 53.87C52.79 54.14 53.16 54.17 53.33 53.95Z" />
	</g>
	<text id="Created by Vectors Point" style="transform: matrix(0.445,0,0,0.447,0,127.251)" >
		<tspan x="0" y="0" class="txt1">Created by Vectors Point</tspan>
	</text>
	<text id="from the Noun Project" style="transform: matrix(0.445,0,0,0.447,0,129.483)" >
		<tspan x="0" y="0" class="txt1">from the Noun Project</tspan>
	</text>
</svg>