<svg xmlns="http://www.w3.org/2000/svg" viewBox="0 0 120 121" width="120" height="121">
	<style>
		tspan { white-space:pre }
		.shp0 { fill: #689d71 } 
		.txt1 { font-size: 5px;fill: #000000;font-family: "'  Helvetica   Neue'" } 
	</style>
	<g id="Layer">
		<path id="Layer" fill-rule="evenodd" class="shp0" d="M46.92 62.26C49.46 55.89 46.73 46.33 47.46 45.63C45.65 44.68 44.77 43.31 46.58 41.37C48.11 39.72 51.48 40.01 53.47 39.83C56.83 39.51 59.85 39.3 63.15 40.05C63.17 40.06 63.19 40.07 63.21 40.08C65.77 39.94 75.56 41.08 72.33 45.66C72.15 45.92 71.92 46.14 71.67 46.35C72.15 52.7 68.45 55.55 71.83 64.06C75.23 69.84 78.55 75.68 82.02 81.43C83.83 84.44 85.67 87.43 87.51 90.43C89.32 93.39 91.37 96.33 92.71 99.55C94.6 104.09 94.59 109.24 90.87 112.81C86.99 116.53 81.36 117.03 76.33 117.63C63.7 119.17 51.1 119.47 38.55 117.11C34.11 116.28 29.17 115.34 27.03 110.75C23.33 102.83 32 90.37 37.87 79.53C40.95 73.82 43.62 67.82 46.92 62.26ZM77.92 77.45C77.05 79.48 74.8 80.82 72.77 81.57C63.27 85.07 53.15 77.05 46.97 75.78C44.55 75.29 43.07 76 41.16 76.76C40.83 77.35 40.51 77.94 40.18 78.52C41.51 78.76 42.83 78.95 44.15 79.28C44.67 79.41 44.55 80.16 44.04 80.19C42.5 80.29 41.09 79.93 39.71 79.35C38.11 82.19 36.47 85.02 34.89 87.86C36.35 87.92 37.79 88.05 39.25 88.11C40.41 88.16 41.57 88.11 42.7 88.47C43.13 88.59 43.05 89.18 42.67 89.3C40.29 89.99 36.92 89.34 34.49 88.58C32.92 91.44 31.92 93.41 30.95 95.43C32.82 95.11 34.66 95.22 36.47 95.85C36.81 95.96 36.73 96.54 36.37 96.55C34.45 96.6 32.55 96.41 30.67 96.02C29.59 98.27 28.44 100.93 27.91 103.57C33.46 103.59 39.59 104.04 44.86 105.7C45.48 105.9 45.13 106.75 44.58 106.73C41.67 106.64 38.77 105.98 35.89 105.55C33.19 105.14 30.48 104.74 27.8 104.2C27.36 106.93 27.66 109.61 29.49 111.76C32.71 115.53 39.28 115.79 43.78 116.45C55.29 118.13 67.03 117.36 78.5 115.82C83.55 115.14 90.07 113.92 92.03 108.37C94.03 102.74 89.83 97.05 87.09 92.51C84.05 87.51 80.91 82.52 77.92 77.45ZM76.6 76.88C74.49 76.47 72.46 75.83 70.26 76.05C67.07 76.38 64.87 77.95 62.57 80.05C67.69 81.25 73.21 81.14 76.6 76.88ZM48.23 45.06C49.92 45.89 56.36 47.03 58.24 47.22C61.87 47.59 66.81 47.52 70.15 45.88C71.39 45.45 71.79 44.47 71.35 42.92C70.91 42.63 70.45 42.38 69.95 42.19C69.41 41.94 68.79 41.67 68.23 41.5C66.58 40.99 64.85 41.11 63.19 40.71C62.55 40.85 51.83 40.05 47.72 41.69C46.67 43.43 46.84 44.55 48.23 45.06ZM47.03 64.62C46.33 66.39 45.57 68.12 44.75 69.83C45.17 69.86 52.97 70.45 55.17 71.15C55.69 71.32 55.61 72.03 55.08 72.09C51.74 72.43 47.66 71.73 44.29 70.79C43.49 72.4 42.66 73.99 41.81 75.58C47.33 72.26 54.15 77.97 62.21 79.96C62.21 79.93 62.21 79.91 62.22 79.89C64.47 74.93 72.27 73.03 76.9 75.7C75.4 73.12 73.95 70.5 72.57 67.85C70.86 65.14 69.49 62.34 69.3 59.2C69.17 56.92 69.49 54.7 69.89 52.48C70.24 50.56 70.46 48.45 71.24 46.65C67.19 49.18 58.71 47.61 55.89 47.52C54.73 47.49 50.74 47.07 48.07 45.92C49.48 53.34 49.89 58.55 47.03 64.62Z" />
		<path id="Layer" class="shp0" d="M50.53 49.75C51.42 49.69 52.69 50.99 55.58 51.89C58.57 52.82 62.88 53.29 66.03 52.22C66.27 52.13 66.3 51.7 65.99 51.71C62.46 51.88 59.31 52.12 55.85 51.16C54.35 50.73 52.02 49.05 50.51 49.65C50.45 49.68 50.48 49.76 50.53 49.75Z" />
		<path id="Layer" class="shp0" d="M86.06 108.05C85.92 108.31 86.25 108.62 86.47 108.39C90.62 104.01 85.27 97.3 82.31 93.85C82.07 93.58 81.63 93.97 81.83 94.26C84.57 98.12 88.67 103.24 86.06 108.05Z" />
		<path id="Layer" fill-rule="evenodd" class="shp0" d="M81.38 63.31C81.14 63.12 81.31 62.77 81.54 62.72C81.55 62.38 81.61 62.05 81.71 61.74C81.66 61.73 81.62 61.71 81.58 61.66C77.78 57.05 80.29 49.49 84.92 46.57C91.53 42.39 99.87 47.78 105.93 37.91C106.17 37.51 106.75 37.86 106.61 38.27C106.4 38.92 106.15 39.5 105.86 40.04C105.77 44.07 104.99 48.25 103.87 52.09C99.75 66.25 87.52 67.99 81.38 63.31ZM98.97 58.8C102.71 53.87 103.55 47.58 104.8 41.63C98.83 48.87 88.07 42.65 82.64 50.14C80.61 52.93 79.77 58.23 81.87 61.29C82.89 59.01 85.84 57.58 88.08 56.57C87.29 54.43 89.05 51.85 90.83 50.83C91.14 50.65 91.58 50.99 91.44 51.33C90.69 53.18 89.8 53.27 89.05 56.13C92.13 54.76 94.83 53.52 96.48 50.05C96.61 49.78 96.99 49.93 96.99 50.2C97.07 53.27 94.39 55.26 91.85 56.41C89.57 57.44 87.04 58.01 85.21 59.15C85.24 59.16 85.27 59.17 85.3 59.18C86.27 59.59 87.09 60.18 88.18 60.34C89.39 60.52 90.59 60.17 91.79 60.09C92.07 60.07 92.19 60.42 92.03 60.62C90.22 62.85 86.47 61.87 84.76 59.99C84.64 59.86 84.61 59.7 84.62 59.56C83.51 60.39 82.64 61.43 81.81 62.79C87.58 66.23 95.06 63.94 98.97 58.8Z" />
		<path id="Layer" fill-rule="evenodd" class="shp0" d="M72.51 37.87C72.34 37.56 72.21 37.25 72.13 36.94C72.09 36.96 72.03 36.96 71.97 36.94C66.17 34.98 64.4 27.03 67.03 22C70.55 15.28 80.09 15.18 80.05 3.68C80.05 3.21 80.73 3.26 80.83 3.66C80.99 4.31 81.08 4.93 81.12 5.54C82.99 8.69 84.36 12.23 85.46 15.72C90.15 30.59 80.63 39.09 72.66 38.44C72.37 38.42 72.34 38.04 72.51 37.87ZM74.79 29.13C72.97 27.72 73.17 24.63 74.11 22.77C74.27 22.44 74.83 22.55 74.88 22.9C75.01 23.74 74.95 24.56 74.94 25.4C74.92 26.43 75.12 27.29 75.39 28.22C77.26 25.42 78.88 22.94 78.46 19.06C78.43 18.77 78.85 18.72 78.98 18.93C80.7 21.62 79.36 24.8 77.73 27.21C76.89 28.46 75.89 29.6 75.01 30.82C74.5 31.51 74.11 32.18 73.78 32.85C73.8 32.85 73.82 32.84 73.84 32.83C74.91 32.64 75.95 32.7 76.97 32.22C78.04 31.7 78.84 30.79 79.79 30.1C80.04 29.93 80.3 30.18 80.27 30.43C79.95 33.33 76.16 34.45 73.77 33.81C73.62 33.77 73.52 33.69 73.46 33.59C72.97 34.87 72.76 36.2 72.77 37.77C79.7 37.54 84.81 31.28 85.21 24.61C85.58 18.58 83.07 13.01 81.06 7.46C80.51 11.59 77.31 14.66 73.73 17.12C70.78 19.14 67.9 21.29 67.05 25C66.13 28.97 68.09 34.72 72.03 36.47C71.69 34 73.44 31.18 74.79 29.13Z" />
		<path id="Layer" fill-rule="evenodd" class="shp0" d="M36.11 15.49C36.88 11.88 37.91 8.19 39.51 4.85C39.49 4.24 39.52 3.61 39.61 2.96C39.67 2.53 40.35 2.47 40.39 2.93C41.29 13.39 49.49 13.7 53.86 18.39C58.2 23.04 57.87 32.4 51.52 35.26C51.46 35.29 51.41 35.29 51.36 35.27C51.31 35.59 51.21 35.91 51.07 36.22C51.28 36.37 51.23 36.77 50.9 36.83C43.09 38.23 32.85 30.6 36.11 15.49ZM37.11 23.71C37.97 30.55 43.63 36.6 50.81 36.16C50.67 34.6 50.41 33.24 49.75 31.95C49.45 33.06 43.43 33.26 42.65 29.57C42.6 29.32 42.84 29.04 43.1 29.19C44.13 29.8 45.03 30.66 46.18 31.05C47.31 31.45 48.41 31.25 49.42 31.36C47.51 28.25 40.15 23.27 42.89 17.96C43.02 17.71 43.41 17.85 43.4 18.12C43.35 22 45.21 24.31 47.31 26.9C47.94 23.96 47.2 23.63 47.32 21.59C47.35 21.14 47.9 21.06 48.12 21.41C49.2 23.13 49.65 26.21 47.99 27.74C49.53 29.67 51.51 32.33 51.41 34.8C55.15 32.7 56.6 26.82 55.34 22.98C52.78 15.16 41.83 15.84 39.75 6.73C38.3 12.29 36.39 17.9 37.11 23.71Z" />
		<path id="Layer" fill-rule="evenodd" class="shp0" d="M14.11 36.57C13.82 35.99 13.57 35.38 13.39 34.75C13.25 34.29 13.93 34.18 14.13 34.52C20.15 44.85 29.82 38.73 36.27 44.78C39.79 48.08 41.27 54.88 37.85 58.83C37.81 58.88 37.75 58.9 37.7 58.91C37.79 59.24 37.85 59.57 37.85 59.93C38.09 59.98 38.24 60.32 37.97 60.51C31.42 65.23 19.11 62.58 15.61 47.96C14.73 44.28 14.09 40.38 14.11 36.57ZM15.13 38.19C16.16 43.76 16.81 49.5 19.78 54.41C23.37 60.32 31.21 63.59 37.58 59.97C36.79 58.6 35.98 57.52 34.86 56.65C34.89 56.79 34.86 56.93 34.75 57.05C32.93 58.91 29.19 59.85 27.39 57.51C27.25 57.32 27.41 56.99 27.64 57.01C28.54 57.1 29.43 57.34 30.33 57.38C31.83 57.45 32.89 56.78 34.23 56.25C34.25 56.24 34.27 56.24 34.28 56.24C31.32 54.31 22.42 52.87 22.71 46.98C22.73 46.72 23.11 46.58 23.23 46.85C24.79 50.35 27.46 51.7 30.5 53.15C29.79 50.1 28.94 50.17 28.27 48.35C28.13 47.97 28.49 47.55 28.87 47.78C30.65 48.86 32.28 51.48 31.46 53.6C33.65 54.64 36.59 56.16 37.55 58.47C39.32 55.98 39.11 51.56 37.97 48.91C36.13 44.67 32.09 43.14 27.81 42.81C23.24 42.46 18.48 42.63 15.13 38.19Z" />
	</g>
	<text id="Created by Vectors Point" style="transform: matrix(0.445,0,0,0.45,0,128.197)" >
		<tspan x="0" y="0" class="txt1">Created by Vectors Point</tspan>
	</text>
	<text id="from the Noun Project" style="transform: matrix(0.445,0,0,0.45,0,130.446)" >
		<tspan x="0" y="0" class="txt1">from the Noun Project</tspan>
	</text>
</svg>