<svg xmlns="http://www.w3.org/2000/svg" viewBox="0 0 20 16" width="20" height="16">
	<style>
		tspan { white-space:pre }
		.shp0 { fill: #618567 } 
	</style>
	<path id="Layer" class="shp0" d="M19.86 1.82C19.14 2.14 18.38 2.34 17.58 2.44C18.4 1.96 19.02 1.2 19.32 0.3C18.56 0.74 17.7 1.06 16.8 1.24C16.06 0.48 15.04 0 13.88 0C11.68 0 9.9 1.74 9.9 3.88C9.9 4.18 9.94 4.48 10 4.78C6.68 4.6 3.74 3.06 1.78 0.72C1.44 1.28 1.24 1.96 1.24 2.66C1.24 4.02 1.94 5.2 3.02 5.9C2.36 5.88 1.74 5.7 1.22 5.4L1.22 5.46C1.22 7.34 2.58 8.9 4.4 9.26C4.08 9.34 3.72 9.4 3.36 9.4C3.1 9.4 2.86 9.38 2.6 9.32C3.12 10.86 4.58 12 6.34 12.02C4.96 13.06 3.24 13.68 1.38 13.68C1.06 13.68 0.74 13.66 0.42 13.62C2.2 14.72 4.28 15.38 6.54 15.38C13.88 15.38 17.88 9.46 17.88 4.34L17.88 3.82C18.66 3.28 19.34 2.6 19.86 1.82Z" />
</svg>